%
M48
M72
T01C0.01500
T02C0.02362
T03C0.03150
T04C0.03200
T05C0.03600
T06C0.04000
T07C0.04400
T08C0.05500
T09C0.05906
T10C0.06693
T11C0.07874
T12C0.12598
T13C0.13000
T14C0.14950
T15C0.15000
%
T01
X59950Y24950
X65950Y30950
X107950Y104950
X176950Y80950
X211950Y71950
X219950Y63950
X255950Y121950
X275950Y101950
X366950Y58950
X500950Y200950
X521950Y198950
X531950Y281950
X521950Y285950
X521950Y305950
X440950Y361950
X362950Y312950
X354950Y320950
X325950Y248950
X318950Y241950
X211950Y296950
X181950Y310950
X173950Y389950
X216950Y436950
X196950Y518950
X268950Y533950
X280950Y506950
X293950Y566950
X346950Y488950
X445950Y638950
X423950Y642950
X445950Y664950
X416950Y716950
X375950Y859950
X390950Y878950
X384950Y891950
X397950Y891950
X405950Y895950
X401950Y903950
X398950Y906950
X413950Y903950
X423950Y899950
X359950Y922950
X351950Y906950
X348950Y897950
X330950Y931950
X316950Y879950
X276950Y850950
X249950Y880950
X227950Y824950
X211950Y802950
X196950Y812950
X196950Y878950
X158950Y893950
X196950Y927950
X211950Y958950
X201950Y985950
X211950Y1049950
X211950Y1055950
X201950Y1061950
X197950Y1050950
X264950Y1010950
X268950Y1012950
X276950Y1020950
X314950Y1025950
X329950Y1016950
X347950Y1015950
X364950Y1031950
X380950Y1041950
X376950Y1065950
X380950Y1070950
X367950Y1074950
X362950Y1069950
X368950Y1063950
X347950Y1054950
X329950Y1038950
X325950Y1073950
X359950Y1091950
X412950Y1098950
X480950Y1037950
X514950Y1002950
X569950Y1117950
X579950Y1127950
X715950Y1029950
X725950Y1019950
X603950Y855950
X597950Y849950
X527950Y776950
X526950Y737950
X587950Y712950
X592950Y653950
X600950Y645950
X527950Y556950
X522950Y418950
X579950Y418950
X668950Y418950
X746950Y448950
X761950Y460950
X761950Y533950
X756950Y328950
X760950Y777950
X368950Y992950
X343950Y990950
X292950Y1122950
X294950Y1130950
X112950Y1049950
X104950Y1052950
X107950Y1038950
X112950Y1038950
X90950Y1048950
X97950Y1083950
X34950Y1062950
X30950Y1101950
X34950Y1008950
X43950Y999950
X86950Y980950
X43950Y934950
X43950Y914950
X43950Y898950
X39950Y857950
X80950Y804950
X101950Y824950
X110950Y828950
X112950Y824950
X113950Y814950
X122950Y832950
X101950Y838950
X92950Y846950
X76950Y751950
X82950Y745950
X58950Y722950
X65950Y586950
X192950Y665950
X216950Y676950
X217950Y715950
T02
X100926Y1121926
T03
X427950Y986950
X437950Y986950
X457950Y986950
X477950Y986950
X497950Y986950
X517950Y986950
X537950Y986950
X660950Y986950
X670950Y986950
X690950Y986950
X710950Y986950
X730950Y986950
X750950Y986950
X770950Y986950
X770950Y766950
X750950Y766950
X730950Y766950
X710950Y766950
X690950Y766950
X670950Y766950
X660950Y766950
X537950Y765950
X517950Y765950
X497950Y765950
X477950Y765950
X457950Y765950
X437950Y765950
X427950Y765950
X427950Y545950
X437950Y545950
X457950Y545950
X477950Y545950
X497950Y545950
X517950Y545950
X537950Y545950
X661950Y546950
X671950Y546950
X691950Y546950
X711950Y546950
X731950Y546950
X751950Y546950
X771950Y546950
X770950Y317950
X750950Y317950
X730950Y317950
X710950Y317950
X690950Y317950
X670950Y317950
X660950Y317950
X536950Y316950
X516950Y316950
X496950Y316950
X476950Y316950
X456950Y316950
X436950Y316950
X426950Y316950
T04
X363950Y325950
X344950Y305950
X324950Y305950
X313950Y324950
X303950Y324950
X293950Y324950
X283950Y324950
X284950Y305950
X298950Y291950
X296950Y239950
X295950Y217950
X285950Y217950
X305950Y217950
X315950Y217950
X336950Y239950
X364950Y229950
X345950Y206950
X364950Y189950
X345950Y166950
X324950Y166950
X315950Y187950
X305950Y187950
X295950Y187950
X285950Y187950
X284950Y166950
X250950Y187950
X240950Y187950
X230950Y187950
X220950Y187950
X220950Y217950
X230950Y217950
X240950Y217950
X250950Y217950
X229950Y241950
X258950Y291950
X248950Y324950
X238950Y324950
X228950Y324950
X218950Y324950
X218950Y354950
X228950Y354950
X238950Y354950
X248950Y354950
X226950Y377950
X265950Y391950
X294950Y375950
X305950Y391950
X334950Y375950
X313950Y354950
X303950Y354950
X293950Y354950
X283950Y354950
X344950Y345950
X363950Y365950
X337950Y439950
X363950Y452950
X337950Y479950
X312950Y489950
X302950Y489950
X292950Y489950
X282950Y489950
X292950Y510950
X302950Y525950
X332950Y510950
X363950Y492950
X312950Y459950
X302950Y459950
X292950Y459950
X282950Y459950
X265950Y439950
X249950Y460950
X239950Y460950
X229950Y460950
X219950Y460950
X219950Y490950
X229950Y490950
X239950Y490950
X249950Y490950
X228950Y508950
X262950Y525950
X263950Y578950
X249950Y601950
X239950Y601950
X229950Y601950
X219950Y601950
X219950Y631950
X229950Y631950
X239950Y631950
X249950Y631950
X228950Y653950
X263950Y667950
X294950Y651950
X293950Y631950
X283950Y631950
X303950Y631950
X313950Y631950
X334950Y651950
X339950Y618950
X313950Y601950
X303950Y601950
X293950Y601950
X283950Y601950
X303950Y578950
X339950Y578950
X363950Y600950
X363950Y640950
X338950Y719950
X360950Y730950
X338950Y759950
X332950Y783950
X311950Y765950
X301950Y765950
X291950Y765950
X281950Y765950
X292950Y783950
X301950Y798950
X261950Y798950
X248950Y767950
X238950Y767950
X228950Y767950
X218950Y767950
X229950Y786950
X228950Y737950
X218950Y737950
X238950Y737950
X248950Y737950
X262950Y718950
X281950Y735950
X291950Y735950
X301950Y735950
X311950Y735950
X302950Y718950
X303950Y667950
X360950Y770950
X340950Y849950
X362950Y859950
X340950Y889950
X333950Y910950
X313950Y893950
X303950Y893950
X293950Y893950
X283950Y893950
X293950Y910950
X303950Y920950
X263950Y920950
X250950Y892950
X240950Y892950
X230950Y892950
X220950Y892950
X231950Y914950
X191950Y914950
X169950Y896950
X149950Y881950
X131950Y896950
X131950Y856950
X149950Y841950
X169950Y856950
X191950Y840950
X220950Y862950
X230950Y862950
X240950Y862950
X250950Y862950
X261950Y842950
X283950Y863950
X293950Y863950
X303950Y863950
X301950Y842950
X313950Y863950
X362950Y899950
X342950Y963950
X365950Y981950
X342950Y1003950
X335950Y1028950
X315950Y1012950
X305950Y1012950
X295950Y1012950
X285950Y1012950
X295950Y1028950
X306950Y1046950
X266950Y1046950
X251950Y1012950
X241950Y1012950
X231950Y1012950
X221950Y1012950
X232950Y1035950
X192950Y1035950
X192950Y1013950
X172950Y1023950
X150950Y1013950
X129950Y1025950
X100950Y1025950
X100950Y985950
X129950Y985950
X150950Y973950
X172950Y983950
X192950Y973950
X221950Y982950
X231950Y982950
X241950Y982950
X251950Y982950
X255950Y962950
X285950Y982950
X295950Y982950
X295950Y962950
X305950Y982950
X315950Y982950
X365950Y1021950
X507950Y951950
X507950Y935950
X507950Y918950
X507950Y902950
X507950Y885950
X507950Y870950
X547950Y870950
X547950Y885950
X562950Y886950
X562950Y870950
X562950Y901950
X562950Y918950
X562950Y934950
X547950Y935950
X547950Y918950
X547950Y902950
X547950Y951950
X562950Y951950
X602950Y951950
X602950Y934950
X602950Y918950
X602950Y901950
X602950Y886950
X602950Y870950
X607950Y717950
X607950Y701950
X607950Y686950
X607950Y670950
X607950Y656950
X607950Y642950
X567950Y642950
X567950Y656950
X567950Y670950
X567950Y686950
X567950Y701950
X567950Y717950
X548950Y717950
X548950Y701950
X548950Y686950
X548950Y671950
X548950Y656950
X548950Y642950
X508950Y642950
X508950Y656950
X508950Y671950
X508950Y686950
X508950Y701950
X508950Y717950
X506950Y502950
X506950Y487950
X506950Y472950
X506950Y457950
X506950Y442950
X506950Y428950
X546950Y428950
X546950Y442950
X546950Y457950
X546950Y472950
X546950Y487950
X546950Y502950
X562950Y502950
X562950Y487950
X562950Y471950
X562950Y456950
X562950Y442950
X562950Y428950
X602950Y428950
X602950Y442950
X602950Y456950
X602950Y471950
X602950Y487950
X602950Y502950
X740950Y504950
X740950Y488950
X740950Y471950
X740950Y455950
X740950Y440950
X740950Y425950
X780950Y425950
X780950Y440950
X780950Y455950
X780950Y471950
X780950Y488950
X780950Y504950
X799950Y504950
X799950Y488950
X799950Y470950
X799950Y455950
X799950Y440950
X799950Y424950
X839950Y424950
X839950Y440950
X839950Y455950
X839950Y470950
X839950Y488950
X839950Y504950
X840950Y648950
X840950Y663950
X840950Y678950
X840950Y692950
X840950Y707950
X840950Y722950
X800950Y722950
X800950Y707950
X800950Y692950
X800950Y678950
X800950Y663950
X800950Y648950
X782950Y649950
X782950Y663950
X782950Y678950
X782950Y692950
X782950Y707950
X782950Y722950
X742950Y722950
X742950Y707950
X742950Y692950
X742950Y678950
X742950Y663950
X742950Y649950
X740950Y877950
X740950Y890950
X740950Y905950
X740950Y920950
X740950Y935950
X740950Y949950
X780950Y949950
X780950Y935950
X780950Y920950
X780950Y905950
X780950Y890950
X780950Y877950
X795950Y877950
X795950Y890950
X795950Y905950
X795950Y921950
X795950Y935950
X795950Y949950
X835950Y949950
X835950Y935950
X835950Y921950
X835950Y905950
X835950Y890950
X835950Y877950
X834950Y274950
X834950Y259950
X834950Y246950
X834950Y232950
X834950Y218950
X834950Y204950
X794950Y204950
X794950Y218950
X794950Y232950
X794950Y246950
X794950Y259950
X794950Y274950
X779950Y274950
X779950Y260950
X779950Y246950
X779950Y233950
X779950Y218950
X779950Y204950
X739950Y204950
X739950Y218950
X739950Y233950
X739950Y246950
X739950Y260950
X739950Y274950
X732950Y167950
X732950Y121950
X727950Y114450
X722950Y121950
X732950Y96950
X692950Y96950
X692950Y114950
X692950Y154950
X692950Y167950
X676950Y167950
X671950Y160450
X666950Y167950
X648950Y160950
X648950Y120950
X647950Y96950
X647950Y56950
X534950Y55950
X494950Y55950
X479950Y120950
X509950Y127950
X514950Y120450
X519950Y127950
X519950Y172950
X506950Y208950
X506950Y222950
X506950Y234950
X506950Y248950
X506950Y261950
X506950Y275950
X546950Y275950
X546950Y261950
X546950Y248950
X546950Y234950
X546950Y222950
X546950Y208950
X562950Y207950
X562950Y222950
X562950Y234950
X562950Y248950
X562950Y261950
X562950Y275950
X602950Y275950
X602950Y261950
X602950Y248950
X602950Y234950
X602950Y222950
X602950Y207950
X479950Y172950
X479950Y160950
X464950Y172950
X459950Y165450
X454950Y172950
X424950Y161950
X424950Y121950
X361950Y88950
X341950Y70950
X361950Y48950
X341950Y30950
X324950Y30950
X314950Y50950
X304950Y50950
X294950Y50950
X284950Y50950
X284950Y30950
X251950Y50950
X241950Y50950
X231950Y50950
X221950Y50950
X221950Y80950
X231950Y80950
X241950Y80950
X251950Y80950
X264950Y116950
X294950Y98950
X304950Y116950
X304950Y80950
X294950Y80950
X284950Y80950
X314950Y80950
X334950Y98950
X227950Y123950
X187950Y123950
X164950Y109950
X147950Y91950
X126950Y109950
X99950Y116950
X91950Y134950
X59950Y116950
X51950Y134950
X59950Y208950
X51950Y227950
X91950Y227950
X99950Y208950
X125950Y226950
X146950Y208950
X125950Y186950
X146950Y168950
X166950Y189950
X189950Y208950
X166950Y229950
X189950Y241950
X186950Y301950
X164950Y321950
X143950Y340950
X123950Y358950
X123950Y318950
X143950Y300950
X99950Y301950
X91950Y334950
X59950Y301950
X51950Y334950
X59950Y411950
X50950Y444950
X90950Y444950
X99950Y411950
X126950Y454950
X151950Y473950
X168950Y454950
X151950Y433950
X189950Y433950
X189950Y473950
X168950Y494950
X188950Y508950
X126950Y494950
X99950Y512950
X90950Y537950
X59950Y512950
X50950Y537950
X59950Y615950
X50950Y637950
X90950Y637950
X99950Y615950
X127950Y597950
X151950Y582950
X169950Y597950
X189950Y583950
X189950Y623950
X169950Y637950
X151950Y622950
X127950Y637950
X98950Y708950
X129950Y738950
X149950Y757950
X169950Y738950
X189950Y718950
X189950Y758950
X189950Y786950
X169950Y778950
X129950Y778950
X90950Y752950
X58950Y708950
X50950Y752950
X59950Y819950
X99950Y819950
X149950Y717950
X188950Y653950
X305950Y439950
X186950Y377950
X164950Y361950
X186950Y341950
X189950Y168950
X187950Y91950
X164950Y69950
X147950Y51950
X126950Y69950
X91950Y45950
X51950Y45950
X187950Y51950
X191950Y880950
T05
X130950Y1043950
X130950Y1074950
X100950Y1074950
X100950Y1043950
X100950Y1121950
X130950Y1121950
X461950Y952950
X491950Y952950
X489950Y911950
X459950Y911950
X457950Y724950
X487950Y724950
X485950Y687950
X455950Y687950
X457950Y505950
X487950Y505950
X486950Y467950
X456950Y467950
X456950Y280950
X486950Y280950
X484950Y241950
X454950Y241950
X459950Y150950
X459950Y120950
X583950Y124950
X613950Y124950
X671950Y114950
X671950Y144950
X690950Y236950
X720950Y236950
X720950Y277950
X690950Y277950
X798950Y165950
X828950Y165950
X731950Y465950
X701950Y465950
X691950Y505950
X721950Y505950
X720950Y693950
X690950Y693950
X691950Y731950
X721950Y731950
X718950Y913950
X688950Y913950
X689950Y949950
X719950Y949950
T06
X422150Y1108950
X411250Y1108950
X405850Y1118950
X394950Y1118950
X384150Y1118950
X389550Y1108950
X378650Y1108950
X367850Y1108950
X373250Y1118950
X362350Y1118950
X351550Y1118950
X340650Y1118950
X335250Y1108950
X346050Y1108950
X356950Y1108950
X329750Y1118950
X318950Y1118950
X308050Y1118950
X297150Y1118950
X291750Y1108950
X302650Y1108950
X313450Y1108950
X324350Y1108950
X400450Y1108950
X416750Y1118950
T07
X420950Y951950
X441950Y951950
X441950Y911950
X420950Y911950
X418950Y726950
X437950Y726950
X437950Y686950
X418950Y686950
X418950Y505950
X437950Y505950
X437950Y465950
X418950Y465950
X417950Y280950
X436950Y280950
X436950Y240950
X417950Y240950
X645950Y237950
X670950Y237950
X670950Y277950
X645950Y277950
X654950Y464950
X671950Y465950
X671950Y505950
X654950Y504950
X671950Y691950
X653950Y692950
X653950Y732950
X671950Y731950
X670950Y912950
X651950Y912950
X651950Y952950
X670950Y952950
T08
X689950Y1052950
X731950Y1052950
X791950Y1052950
X791950Y841950
X731950Y841950
X686950Y841950
X626950Y841950
X558950Y841950
X498950Y841950
X451950Y841950
X391950Y841950
X401950Y1054950
X461950Y1054950
X501950Y1054950
X561950Y1054950
X629950Y1052950
X624950Y615950
X684950Y615950
X731950Y615950
X791950Y615950
X789950Y385950
X729950Y385950
X684950Y385950
X624950Y385950
X557950Y384950
X497950Y384950
X452950Y385950
X392950Y385950
X392950Y612950
X452950Y612950
X498950Y611950
X558950Y611950
X553950Y150950
X613950Y150950
X768950Y136950
X828950Y136950
T09
X793950Y1099950
X768950Y1099950
X743950Y1099950
X718950Y1099950
X693950Y1099950
X668950Y1099950
X643950Y1099950
X618950Y1099950
T10
X56950Y1106336
X56950Y1121926
X56950Y1090745
X56950Y1075155
X56950Y1059564
X56950Y1043974
T11
X55950Y985950
X72950Y985950
X78650Y933450
X78650Y916950
X78650Y900450
X78650Y883950
X56950Y883950
X56950Y900450
X56950Y916950
X56950Y933450
X56950Y792450
X56950Y775950
X78650Y775950
X78650Y792450
X78650Y680450
X78650Y663950
X56950Y663950
X56950Y680450
X56950Y584450
X56950Y567950
X78650Y567950
X78650Y584450
X78650Y485450
X78650Y468950
X56950Y468950
X56950Y485450
X57950Y382450
X57950Y365950
X79650Y365950
X79650Y382450
X80650Y274450
X80650Y257950
X58950Y257950
X58950Y274450
X58950Y179450
X58950Y162950
X80650Y162950
X80650Y179450
X79650Y89450
X79650Y72950
X57950Y72950
X57950Y89450
X471950Y72950
X471950Y55950
X560950Y56950
X560950Y73950
X609950Y73950
X609950Y56950
X692950Y57950
X692950Y74950
X794450Y77650
X810950Y77650
X810950Y55950
X794450Y55950
T12
X802950Y337450
X803950Y567450
X804950Y787450
X806950Y1007450
X626950Y1007450
X570950Y1007450
X571950Y786450
X624950Y787450
X623950Y567450
X571950Y565450
X572950Y337450
X622950Y337450
X392950Y337450
X391950Y565450
X391950Y786450
X390950Y1007450
T13
X449550Y1113950
X264350Y1113950
T14
X30450Y23450
X855450Y23450
X855450Y1148450
X30450Y1148450
T15
X588950Y1109950
X823950Y1109950
M30
