G75*
%MOIN*%
%OFA0B0*%
%FSLAX25Y25*%
%IPPOS*%
%LPD*%
%AMOC8*
5,1,8,0,0,1.08239X$1,22.5*
%
%ADD10C,0.15750*%
%ADD11OC8,0.06400*%
%ADD12OC8,0.06000*%
%ADD13R,0.12611X0.12611*%
%ADD14C,0.06000*%
%ADD15OC8,0.06800*%
%ADD16C,0.20800*%
%ADD17C,0.10839*%
%ADD18R,0.09658X0.09658*%
%ADD19C,0.09658*%
%ADD20C,0.15800*%
%ADD21C,0.09050*%
%ADD22R,0.05950X0.05950*%
%ADD23C,0.05950*%
%ADD24C,0.07400*%
%ADD25C,0.13398*%
%ADD26C,0.03900*%
%ADD27R,0.04762X0.04762*%
D10*
X0030450Y0023450D03*
X0855450Y0023450D03*
X0855450Y1148450D03*
X0030450Y1148450D03*
D11*
X0100950Y1121950D03*
X0130950Y1121950D03*
X0130950Y1074950D03*
X0130950Y1043950D03*
X0100950Y1043950D03*
X0100950Y1074950D03*
X0461950Y0952950D03*
X0491950Y0952950D03*
X0489950Y0911950D03*
X0459950Y0911950D03*
X0457950Y0724950D03*
X0487950Y0724950D03*
X0485950Y0687950D03*
X0455950Y0687950D03*
X0457950Y0505950D03*
X0487950Y0505950D03*
X0486950Y0467950D03*
X0456950Y0467950D03*
X0456950Y0280950D03*
X0486950Y0280950D03*
X0484950Y0241950D03*
X0454950Y0241950D03*
X0459950Y0150950D03*
X0459950Y0120950D03*
X0583950Y0124950D03*
X0613950Y0124950D03*
X0671950Y0114950D03*
X0671950Y0144950D03*
X0690950Y0236950D03*
X0720950Y0236950D03*
X0720950Y0277950D03*
X0690950Y0277950D03*
X0798950Y0165950D03*
X0828950Y0165950D03*
X0731950Y0465950D03*
X0701950Y0465950D03*
X0691950Y0505950D03*
X0721950Y0505950D03*
X0720950Y0693950D03*
X0690950Y0693950D03*
X0691950Y0731950D03*
X0721950Y0731950D03*
X0718950Y0913950D03*
X0688950Y0913950D03*
X0689950Y0949950D03*
X0719950Y0949950D03*
D12*
X0740950Y0949950D03*
X0740950Y0935950D03*
X0740950Y0920950D03*
X0740950Y0905950D03*
X0740950Y0890950D03*
X0740950Y0877950D03*
X0780950Y0877950D03*
X0780950Y0890950D03*
X0780950Y0905950D03*
X0780950Y0920950D03*
X0780950Y0935950D03*
X0780950Y0949950D03*
X0795950Y0949950D03*
X0795950Y0935950D03*
X0795950Y0921950D03*
X0795950Y0905950D03*
X0795950Y0890950D03*
X0795950Y0877950D03*
X0835950Y0877950D03*
X0835950Y0890950D03*
X0835950Y0905950D03*
X0835950Y0921950D03*
X0835950Y0935950D03*
X0835950Y0949950D03*
X0840950Y0722950D03*
X0840950Y0707950D03*
X0840950Y0692950D03*
X0840950Y0678950D03*
X0840950Y0663950D03*
X0840950Y0648950D03*
X0800950Y0648950D03*
X0800950Y0663950D03*
X0800950Y0678950D03*
X0800950Y0692950D03*
X0800950Y0707950D03*
X0800950Y0722950D03*
X0782950Y0722950D03*
X0782950Y0707950D03*
X0782950Y0692950D03*
X0782950Y0678950D03*
X0782950Y0663950D03*
X0782950Y0649950D03*
X0742950Y0649950D03*
X0742950Y0663950D03*
X0742950Y0678950D03*
X0742950Y0692950D03*
X0742950Y0707950D03*
X0742950Y0722950D03*
X0607950Y0717950D03*
X0607950Y0701950D03*
X0607950Y0686950D03*
X0607950Y0670950D03*
X0607950Y0656950D03*
X0607950Y0642950D03*
X0567950Y0642950D03*
X0567950Y0656950D03*
X0567950Y0670950D03*
X0567950Y0686950D03*
X0567950Y0701950D03*
X0567950Y0717950D03*
X0548950Y0717950D03*
X0548950Y0701950D03*
X0548950Y0686950D03*
X0548950Y0671950D03*
X0548950Y0656950D03*
X0548950Y0642950D03*
X0508950Y0642950D03*
X0508950Y0656950D03*
X0508950Y0671950D03*
X0508950Y0686950D03*
X0508950Y0701950D03*
X0508950Y0717950D03*
X0507950Y0870950D03*
X0507950Y0885950D03*
X0507950Y0902950D03*
X0507950Y0918950D03*
X0507950Y0935950D03*
X0507950Y0951950D03*
X0547950Y0951950D03*
X0562950Y0951950D03*
X0562950Y0934950D03*
X0562950Y0918950D03*
X0562950Y0901950D03*
X0562950Y0886950D03*
X0562950Y0870950D03*
X0547950Y0870950D03*
X0547950Y0885950D03*
X0547950Y0902950D03*
X0547950Y0918950D03*
X0547950Y0935950D03*
X0602950Y0934950D03*
X0602950Y0918950D03*
X0602950Y0901950D03*
X0602950Y0886950D03*
X0602950Y0870950D03*
X0602950Y0951950D03*
X0365950Y0981950D03*
X0342950Y0963950D03*
X0342950Y1003950D03*
X0335950Y1028950D03*
X0365950Y1021950D03*
X0306950Y1046950D03*
X0295950Y1028950D03*
X0266950Y1046950D03*
X0232950Y1035950D03*
X0192950Y1035950D03*
X0192950Y1013950D03*
X0172950Y1023950D03*
X0150950Y1013950D03*
X0129950Y1025950D03*
X0100950Y1025950D03*
X0100950Y0985950D03*
X0129950Y0985950D03*
X0150950Y0973950D03*
X0172950Y0983950D03*
X0192950Y0973950D03*
X0191950Y0914950D03*
X0169950Y0896950D03*
X0149950Y0881950D03*
X0131950Y0896950D03*
X0131950Y0856950D03*
X0149950Y0841950D03*
X0169950Y0856950D03*
X0191950Y0840950D03*
X0191950Y0880950D03*
X0231950Y0914950D03*
X0263950Y0920950D03*
X0293950Y0910950D03*
X0303950Y0920950D03*
X0333950Y0910950D03*
X0340950Y0889950D03*
X0362950Y0899950D03*
X0362950Y0859950D03*
X0340950Y0849950D03*
X0301950Y0842950D03*
X0261950Y0842950D03*
X0261950Y0798950D03*
X0292950Y0783950D03*
X0301950Y0798950D03*
X0332950Y0783950D03*
X0338950Y0759950D03*
X0360950Y0770950D03*
X0360950Y0730950D03*
X0338950Y0719950D03*
X0302950Y0718950D03*
X0262950Y0718950D03*
X0263950Y0667950D03*
X0294950Y0651950D03*
X0303950Y0667950D03*
X0334950Y0651950D03*
X0339950Y0618950D03*
X0363950Y0600950D03*
X0339950Y0578950D03*
X0303950Y0578950D03*
X0263950Y0578950D03*
X0262950Y0525950D03*
X0292950Y0510950D03*
X0302950Y0525950D03*
X0332950Y0510950D03*
X0337950Y0479950D03*
X0363950Y0492950D03*
X0363950Y0452950D03*
X0337950Y0439950D03*
X0305950Y0439950D03*
X0305950Y0391950D03*
X0294950Y0375950D03*
X0265950Y0391950D03*
X0226950Y0377950D03*
X0186950Y0377950D03*
X0164950Y0361950D03*
X0143950Y0340950D03*
X0123950Y0358950D03*
X0123950Y0318950D03*
X0143950Y0300950D03*
X0164950Y0321950D03*
X0186950Y0301950D03*
X0186950Y0341950D03*
X0258950Y0291950D03*
X0284950Y0305950D03*
X0298950Y0291950D03*
X0324950Y0305950D03*
X0344950Y0305950D03*
X0363950Y0325950D03*
X0344950Y0345950D03*
X0363950Y0365950D03*
X0334950Y0375950D03*
X0265950Y0439950D03*
X0228950Y0508950D03*
X0188950Y0508950D03*
X0168950Y0494950D03*
X0151950Y0473950D03*
X0168950Y0454950D03*
X0151950Y0433950D03*
X0126950Y0454950D03*
X0126950Y0494950D03*
X0099950Y0512950D03*
X0090950Y0537950D03*
X0059950Y0512950D03*
X0050950Y0537950D03*
X0059950Y0615950D03*
X0050950Y0637950D03*
X0090950Y0637950D03*
X0099950Y0615950D03*
X0127950Y0597950D03*
X0151950Y0582950D03*
X0169950Y0597950D03*
X0189950Y0583950D03*
X0189950Y0623950D03*
X0169950Y0637950D03*
X0151950Y0622950D03*
X0127950Y0637950D03*
X0098950Y0708950D03*
X0129950Y0738950D03*
X0149950Y0757950D03*
X0169950Y0738950D03*
X0189950Y0718950D03*
X0189950Y0758950D03*
X0189950Y0786950D03*
X0169950Y0778950D03*
X0129950Y0778950D03*
X0090950Y0752950D03*
X0058950Y0708950D03*
X0050950Y0752950D03*
X0059950Y0819950D03*
X0099950Y0819950D03*
X0149950Y0717950D03*
X0188950Y0653950D03*
X0228950Y0653950D03*
X0229950Y0786950D03*
X0255950Y0962950D03*
X0295950Y0962950D03*
X0363950Y0640950D03*
X0506950Y0502950D03*
X0506950Y0487950D03*
X0506950Y0472950D03*
X0506950Y0457950D03*
X0506950Y0442950D03*
X0506950Y0428950D03*
X0546950Y0428950D03*
X0546950Y0442950D03*
X0546950Y0457950D03*
X0546950Y0472950D03*
X0546950Y0487950D03*
X0546950Y0502950D03*
X0562950Y0502950D03*
X0562950Y0487950D03*
X0562950Y0471950D03*
X0562950Y0456950D03*
X0562950Y0442950D03*
X0562950Y0428950D03*
X0602950Y0428950D03*
X0602950Y0442950D03*
X0602950Y0456950D03*
X0602950Y0471950D03*
X0602950Y0487950D03*
X0602950Y0502950D03*
X0740950Y0504950D03*
X0740950Y0488950D03*
X0740950Y0471950D03*
X0740950Y0455950D03*
X0740950Y0440950D03*
X0740950Y0425950D03*
X0780950Y0425950D03*
X0780950Y0440950D03*
X0780950Y0455950D03*
X0780950Y0471950D03*
X0780950Y0488950D03*
X0780950Y0504950D03*
X0799950Y0504950D03*
X0799950Y0488950D03*
X0799950Y0470950D03*
X0799950Y0455950D03*
X0799950Y0440950D03*
X0799950Y0424950D03*
X0839950Y0424950D03*
X0839950Y0440950D03*
X0839950Y0455950D03*
X0839950Y0470950D03*
X0839950Y0488950D03*
X0839950Y0504950D03*
X0834950Y0274950D03*
X0834950Y0259950D03*
X0834950Y0246950D03*
X0834950Y0232950D03*
X0834950Y0218950D03*
X0834950Y0204950D03*
X0794950Y0204950D03*
X0794950Y0218950D03*
X0794950Y0232950D03*
X0794950Y0246950D03*
X0794950Y0259950D03*
X0794950Y0274950D03*
X0779950Y0274950D03*
X0779950Y0260950D03*
X0779950Y0246950D03*
X0779950Y0233950D03*
X0779950Y0218950D03*
X0779950Y0204950D03*
X0739950Y0204950D03*
X0739950Y0218950D03*
X0739950Y0233950D03*
X0739950Y0246950D03*
X0739950Y0260950D03*
X0739950Y0274950D03*
X0732950Y0167950D03*
X0732950Y0121950D03*
X0727950Y0114450D03*
X0722950Y0121950D03*
X0732950Y0096950D03*
X0692950Y0096950D03*
X0692950Y0114950D03*
X0692950Y0154950D03*
X0692950Y0167950D03*
X0676950Y0167950D03*
X0671950Y0160450D03*
X0666950Y0167950D03*
X0648950Y0160950D03*
X0648950Y0120950D03*
X0647950Y0096950D03*
X0647950Y0056950D03*
X0534950Y0055950D03*
X0494950Y0055950D03*
X0479950Y0120950D03*
X0509950Y0127950D03*
X0514950Y0120450D03*
X0519950Y0127950D03*
X0519950Y0172950D03*
X0506950Y0208950D03*
X0506950Y0222950D03*
X0506950Y0234950D03*
X0506950Y0248950D03*
X0506950Y0261950D03*
X0506950Y0275950D03*
X0546950Y0275950D03*
X0546950Y0261950D03*
X0546950Y0248950D03*
X0546950Y0234950D03*
X0546950Y0222950D03*
X0546950Y0208950D03*
X0562950Y0207950D03*
X0562950Y0222950D03*
X0562950Y0234950D03*
X0562950Y0248950D03*
X0562950Y0261950D03*
X0562950Y0275950D03*
X0602950Y0275950D03*
X0602950Y0261950D03*
X0602950Y0248950D03*
X0602950Y0234950D03*
X0602950Y0222950D03*
X0602950Y0207950D03*
X0479950Y0172950D03*
X0479950Y0160950D03*
X0464950Y0172950D03*
X0459950Y0165450D03*
X0454950Y0172950D03*
X0424950Y0161950D03*
X0424950Y0121950D03*
X0361950Y0088950D03*
X0341950Y0070950D03*
X0361950Y0048950D03*
X0341950Y0030950D03*
X0324950Y0030950D03*
X0284950Y0030950D03*
X0294950Y0098950D03*
X0304950Y0116950D03*
X0334950Y0098950D03*
X0324950Y0166950D03*
X0345950Y0166950D03*
X0364950Y0189950D03*
X0345950Y0206950D03*
X0364950Y0229950D03*
X0336950Y0239950D03*
X0296950Y0239950D03*
X0284950Y0166950D03*
X0264950Y0116950D03*
X0227950Y0123950D03*
X0187950Y0123950D03*
X0164950Y0109950D03*
X0147950Y0091950D03*
X0126950Y0109950D03*
X0099950Y0116950D03*
X0091950Y0134950D03*
X0059950Y0116950D03*
X0051950Y0134950D03*
X0059950Y0208950D03*
X0051950Y0227950D03*
X0091950Y0227950D03*
X0099950Y0208950D03*
X0125950Y0226950D03*
X0146950Y0208950D03*
X0125950Y0186950D03*
X0146950Y0168950D03*
X0166950Y0189950D03*
X0189950Y0208950D03*
X0166950Y0229950D03*
X0189950Y0241950D03*
X0229950Y0241950D03*
X0189950Y0168950D03*
X0187950Y0091950D03*
X0164950Y0069950D03*
X0147950Y0051950D03*
X0126950Y0069950D03*
X0091950Y0045950D03*
X0051950Y0045950D03*
X0187950Y0051950D03*
X0099950Y0301950D03*
X0091950Y0334950D03*
X0059950Y0301950D03*
X0051950Y0334950D03*
X0059950Y0411950D03*
X0050950Y0444950D03*
X0090950Y0444950D03*
X0099950Y0411950D03*
X0189950Y0433950D03*
X0189950Y0473950D03*
D13*
X0078650Y0468950D03*
X0078650Y0485450D03*
X0056950Y0485450D03*
X0056950Y0468950D03*
X0057950Y0382450D03*
X0057950Y0365950D03*
X0079650Y0365950D03*
X0079650Y0382450D03*
X0080650Y0274450D03*
X0080650Y0257950D03*
X0058950Y0257950D03*
X0058950Y0274450D03*
X0058950Y0179450D03*
X0058950Y0162950D03*
X0080650Y0162950D03*
X0080650Y0179450D03*
X0079650Y0089450D03*
X0079650Y0072950D03*
X0057950Y0072950D03*
X0057950Y0089450D03*
X0056950Y0567950D03*
X0056950Y0584450D03*
X0078650Y0584450D03*
X0078650Y0567950D03*
X0078650Y0663950D03*
X0078650Y0680450D03*
X0056950Y0680450D03*
X0056950Y0663950D03*
X0056950Y0775950D03*
X0056950Y0792450D03*
X0078650Y0792450D03*
X0078650Y0775950D03*
X0078650Y0883950D03*
X0078650Y0900450D03*
X0078650Y0916950D03*
X0078650Y0933450D03*
X0056950Y0933450D03*
X0056950Y0916950D03*
X0056950Y0900450D03*
X0056950Y0883950D03*
X0055950Y0985950D03*
X0072950Y0985950D03*
X0471950Y0072950D03*
X0471950Y0055950D03*
X0560950Y0056950D03*
X0560950Y0073950D03*
X0609950Y0073950D03*
X0609950Y0056950D03*
X0692950Y0057950D03*
X0692950Y0074950D03*
X0794450Y0077650D03*
X0810950Y0077650D03*
X0810950Y0055950D03*
X0794450Y0055950D03*
D14*
X0314950Y0053550D02*
X0314950Y0048350D01*
X0304950Y0048350D02*
X0304950Y0053550D01*
X0294950Y0053550D02*
X0294950Y0048350D01*
X0284950Y0048350D02*
X0284950Y0053550D01*
X0284950Y0078350D02*
X0284950Y0083550D01*
X0294950Y0083550D02*
X0294950Y0078350D01*
X0304950Y0078350D02*
X0304950Y0083550D01*
X0314950Y0083550D02*
X0314950Y0078350D01*
X0251950Y0078350D02*
X0251950Y0083550D01*
X0241950Y0083550D02*
X0241950Y0078350D01*
X0231950Y0078350D02*
X0231950Y0083550D01*
X0221950Y0083550D02*
X0221950Y0078350D01*
X0221950Y0053550D02*
X0221950Y0048350D01*
X0231950Y0048350D02*
X0231950Y0053550D01*
X0241950Y0053550D02*
X0241950Y0048350D01*
X0251950Y0048350D02*
X0251950Y0053550D01*
X0250950Y0185350D02*
X0250950Y0190550D01*
X0240950Y0190550D02*
X0240950Y0185350D01*
X0230950Y0185350D02*
X0230950Y0190550D01*
X0220950Y0190550D02*
X0220950Y0185350D01*
X0220950Y0215350D02*
X0220950Y0220550D01*
X0230950Y0220550D02*
X0230950Y0215350D01*
X0240950Y0215350D02*
X0240950Y0220550D01*
X0250950Y0220550D02*
X0250950Y0215350D01*
X0285950Y0215350D02*
X0285950Y0220550D01*
X0295950Y0220550D02*
X0295950Y0215350D01*
X0305950Y0215350D02*
X0305950Y0220550D01*
X0315950Y0220550D02*
X0315950Y0215350D01*
X0315950Y0190550D02*
X0315950Y0185350D01*
X0305950Y0185350D02*
X0305950Y0190550D01*
X0295950Y0190550D02*
X0295950Y0185350D01*
X0285950Y0185350D02*
X0285950Y0190550D01*
X0283950Y0322350D02*
X0283950Y0327550D01*
X0293950Y0327550D02*
X0293950Y0322350D01*
X0303950Y0322350D02*
X0303950Y0327550D01*
X0313950Y0327550D02*
X0313950Y0322350D01*
X0313950Y0352350D02*
X0313950Y0357550D01*
X0303950Y0357550D02*
X0303950Y0352350D01*
X0293950Y0352350D02*
X0293950Y0357550D01*
X0283950Y0357550D02*
X0283950Y0352350D01*
X0248950Y0352350D02*
X0248950Y0357550D01*
X0238950Y0357550D02*
X0238950Y0352350D01*
X0228950Y0352350D02*
X0228950Y0357550D01*
X0218950Y0357550D02*
X0218950Y0352350D01*
X0218950Y0327550D02*
X0218950Y0322350D01*
X0228950Y0322350D02*
X0228950Y0327550D01*
X0238950Y0327550D02*
X0238950Y0322350D01*
X0248950Y0322350D02*
X0248950Y0327550D01*
X0249950Y0458350D02*
X0249950Y0463550D01*
X0239950Y0463550D02*
X0239950Y0458350D01*
X0229950Y0458350D02*
X0229950Y0463550D01*
X0219950Y0463550D02*
X0219950Y0458350D01*
X0219950Y0488350D02*
X0219950Y0493550D01*
X0229950Y0493550D02*
X0229950Y0488350D01*
X0239950Y0488350D02*
X0239950Y0493550D01*
X0249950Y0493550D02*
X0249950Y0488350D01*
X0282950Y0487350D02*
X0282950Y0492550D01*
X0292950Y0492550D02*
X0292950Y0487350D01*
X0302950Y0487350D02*
X0302950Y0492550D01*
X0312950Y0492550D02*
X0312950Y0487350D01*
X0312950Y0462550D02*
X0312950Y0457350D01*
X0302950Y0457350D02*
X0302950Y0462550D01*
X0292950Y0462550D02*
X0292950Y0457350D01*
X0282950Y0457350D02*
X0282950Y0462550D01*
X0283950Y0599350D02*
X0283950Y0604550D01*
X0293950Y0604550D02*
X0293950Y0599350D01*
X0303950Y0599350D02*
X0303950Y0604550D01*
X0313950Y0604550D02*
X0313950Y0599350D01*
X0313950Y0629350D02*
X0313950Y0634550D01*
X0303950Y0634550D02*
X0303950Y0629350D01*
X0293950Y0629350D02*
X0293950Y0634550D01*
X0283950Y0634550D02*
X0283950Y0629350D01*
X0249950Y0629350D02*
X0249950Y0634550D01*
X0239950Y0634550D02*
X0239950Y0629350D01*
X0229950Y0629350D02*
X0229950Y0634550D01*
X0219950Y0634550D02*
X0219950Y0629350D01*
X0219950Y0604550D02*
X0219950Y0599350D01*
X0229950Y0599350D02*
X0229950Y0604550D01*
X0239950Y0604550D02*
X0239950Y0599350D01*
X0249950Y0599350D02*
X0249950Y0604550D01*
X0281950Y0733350D02*
X0281950Y0738550D01*
X0291950Y0738550D02*
X0291950Y0733350D01*
X0301950Y0733350D02*
X0301950Y0738550D01*
X0311950Y0738550D02*
X0311950Y0733350D01*
X0311950Y0763350D02*
X0311950Y0768550D01*
X0301950Y0768550D02*
X0301950Y0763350D01*
X0291950Y0763350D02*
X0291950Y0768550D01*
X0281950Y0768550D02*
X0281950Y0763350D01*
X0248950Y0765350D02*
X0248950Y0770550D01*
X0238950Y0770550D02*
X0238950Y0765350D01*
X0228950Y0765350D02*
X0228950Y0770550D01*
X0218950Y0770550D02*
X0218950Y0765350D01*
X0218950Y0740550D02*
X0218950Y0735350D01*
X0228950Y0735350D02*
X0228950Y0740550D01*
X0238950Y0740550D02*
X0238950Y0735350D01*
X0248950Y0735350D02*
X0248950Y0740550D01*
X0250950Y0860350D02*
X0250950Y0865550D01*
X0240950Y0865550D02*
X0240950Y0860350D01*
X0230950Y0860350D02*
X0230950Y0865550D01*
X0220950Y0865550D02*
X0220950Y0860350D01*
X0220950Y0890350D02*
X0220950Y0895550D01*
X0230950Y0895550D02*
X0230950Y0890350D01*
X0240950Y0890350D02*
X0240950Y0895550D01*
X0250950Y0895550D02*
X0250950Y0890350D01*
X0283950Y0891350D02*
X0283950Y0896550D01*
X0293950Y0896550D02*
X0293950Y0891350D01*
X0303950Y0891350D02*
X0303950Y0896550D01*
X0313950Y0896550D02*
X0313950Y0891350D01*
X0313950Y0866550D02*
X0313950Y0861350D01*
X0303950Y0861350D02*
X0303950Y0866550D01*
X0293950Y0866550D02*
X0293950Y0861350D01*
X0283950Y0861350D02*
X0283950Y0866550D01*
X0285950Y0980350D02*
X0285950Y0985550D01*
X0295950Y0985550D02*
X0295950Y0980350D01*
X0305950Y0980350D02*
X0305950Y0985550D01*
X0315950Y0985550D02*
X0315950Y0980350D01*
X0315950Y1010350D02*
X0315950Y1015550D01*
X0305950Y1015550D02*
X0305950Y1010350D01*
X0295950Y1010350D02*
X0295950Y1015550D01*
X0285950Y1015550D02*
X0285950Y1010350D01*
X0251950Y1010350D02*
X0251950Y1015550D01*
X0241950Y1015550D02*
X0241950Y1010350D01*
X0231950Y1010350D02*
X0231950Y1015550D01*
X0221950Y1015550D02*
X0221950Y1010350D01*
X0221950Y0985550D02*
X0221950Y0980350D01*
X0231950Y0980350D02*
X0231950Y0985550D01*
X0241950Y0985550D02*
X0241950Y0980350D01*
X0251950Y0980350D02*
X0251950Y0985550D01*
D15*
X0291750Y1108950D03*
X0302650Y1108950D03*
X0313450Y1108950D03*
X0308050Y1118950D03*
X0297150Y1118950D03*
X0318950Y1118950D03*
X0329750Y1118950D03*
X0324350Y1108950D03*
X0335250Y1108950D03*
X0346050Y1108950D03*
X0356950Y1108950D03*
X0351550Y1118950D03*
X0362350Y1118950D03*
X0373250Y1118950D03*
X0367850Y1108950D03*
X0378650Y1108950D03*
X0389550Y1108950D03*
X0400450Y1108950D03*
X0405850Y1118950D03*
X0394950Y1118950D03*
X0384150Y1118950D03*
X0411250Y1108950D03*
X0422150Y1108950D03*
X0416750Y1118950D03*
X0340650Y1118950D03*
D16*
X0264350Y1113950D03*
X0449550Y1113950D03*
D17*
X0061970Y1106336D02*
X0051930Y1106336D01*
X0051930Y1121926D02*
X0061970Y1121926D01*
X0061970Y1090745D02*
X0051930Y1090745D01*
X0051930Y1075155D02*
X0061970Y1075155D01*
X0061970Y1059564D02*
X0051930Y1059564D01*
X0051930Y1043974D02*
X0061970Y1043974D01*
D18*
X0618950Y1099950D03*
D19*
X0643950Y1099950D03*
X0668950Y1099950D03*
X0693950Y1099950D03*
X0718950Y1099950D03*
X0743950Y1099950D03*
X0768950Y1099950D03*
X0793950Y1099950D03*
D20*
X0823950Y1109950D03*
X0588950Y1109950D03*
D21*
X0566075Y1054950D02*
X0557825Y1054950D01*
X0506075Y1054950D02*
X0497825Y1054950D01*
X0466075Y1054950D02*
X0457825Y1054950D01*
X0406075Y1054950D02*
X0397825Y1054950D01*
X0396075Y0841950D02*
X0387825Y0841950D01*
X0447825Y0841950D02*
X0456075Y0841950D01*
X0494825Y0841950D02*
X0503075Y0841950D01*
X0554825Y0841950D02*
X0563075Y0841950D01*
X0622825Y0841950D02*
X0631075Y0841950D01*
X0682825Y0841950D02*
X0691075Y0841950D01*
X0727825Y0841950D02*
X0736075Y0841950D01*
X0787825Y0841950D02*
X0796075Y0841950D01*
X0796075Y1052950D02*
X0787825Y1052950D01*
X0736075Y1052950D02*
X0727825Y1052950D01*
X0694075Y1052950D02*
X0685825Y1052950D01*
X0634075Y1052950D02*
X0625825Y1052950D01*
X0629075Y0615950D02*
X0620825Y0615950D01*
X0563075Y0611950D02*
X0554825Y0611950D01*
X0503075Y0611950D02*
X0494825Y0611950D01*
X0457075Y0612950D02*
X0448825Y0612950D01*
X0397075Y0612950D02*
X0388825Y0612950D01*
X0388825Y0385950D02*
X0397075Y0385950D01*
X0448825Y0385950D02*
X0457075Y0385950D01*
X0493825Y0384950D02*
X0502075Y0384950D01*
X0553825Y0384950D02*
X0562075Y0384950D01*
X0620825Y0385950D02*
X0629075Y0385950D01*
X0680825Y0385950D02*
X0689075Y0385950D01*
X0725825Y0385950D02*
X0734075Y0385950D01*
X0785825Y0385950D02*
X0794075Y0385950D01*
X0796075Y0615950D02*
X0787825Y0615950D01*
X0736075Y0615950D02*
X0727825Y0615950D01*
X0689075Y0615950D02*
X0680825Y0615950D01*
X0618075Y0150950D02*
X0609825Y0150950D01*
X0558075Y0150950D02*
X0549825Y0150950D01*
X0764825Y0136950D02*
X0773075Y0136950D01*
X0824825Y0136950D02*
X0833075Y0136950D01*
D22*
X0660950Y0317950D03*
X0661950Y0546950D03*
X0660950Y0766950D03*
X0660950Y0986950D03*
X0427950Y0986950D03*
X0427950Y0765950D03*
X0427950Y0545950D03*
X0426950Y0316950D03*
D23*
X0436950Y0316950D03*
X0456950Y0316950D03*
X0476950Y0316950D03*
X0496950Y0316950D03*
X0516950Y0316950D03*
X0536950Y0316950D03*
X0670950Y0317950D03*
X0690950Y0317950D03*
X0710950Y0317950D03*
X0730950Y0317950D03*
X0750950Y0317950D03*
X0770950Y0317950D03*
X0771950Y0546950D03*
X0751950Y0546950D03*
X0731950Y0546950D03*
X0711950Y0546950D03*
X0691950Y0546950D03*
X0671950Y0546950D03*
X0537950Y0545950D03*
X0517950Y0545950D03*
X0497950Y0545950D03*
X0477950Y0545950D03*
X0457950Y0545950D03*
X0437950Y0545950D03*
X0437950Y0765950D03*
X0457950Y0765950D03*
X0477950Y0765950D03*
X0497950Y0765950D03*
X0517950Y0765950D03*
X0537950Y0765950D03*
X0670950Y0766950D03*
X0690950Y0766950D03*
X0710950Y0766950D03*
X0730950Y0766950D03*
X0750950Y0766950D03*
X0770950Y0766950D03*
X0770950Y0986950D03*
X0750950Y0986950D03*
X0730950Y0986950D03*
X0710950Y0986950D03*
X0690950Y0986950D03*
X0670950Y0986950D03*
X0537950Y0986950D03*
X0517950Y0986950D03*
X0497950Y0986950D03*
X0477950Y0986950D03*
X0457950Y0986950D03*
X0437950Y0986950D03*
D24*
X0441950Y0951950D03*
X0420950Y0951950D03*
X0420950Y0911950D03*
X0441950Y0911950D03*
X0437950Y0726950D03*
X0418950Y0726950D03*
X0418950Y0686950D03*
X0437950Y0686950D03*
X0437950Y0505950D03*
X0418950Y0505950D03*
X0418950Y0465950D03*
X0437950Y0465950D03*
X0436950Y0280950D03*
X0417950Y0280950D03*
X0417950Y0240950D03*
X0436950Y0240950D03*
X0645950Y0237950D03*
X0670950Y0237950D03*
X0670950Y0277950D03*
X0645950Y0277950D03*
X0654950Y0464950D03*
X0671950Y0465950D03*
X0671950Y0505950D03*
X0654950Y0504950D03*
X0671950Y0691950D03*
X0653950Y0692950D03*
X0653950Y0732950D03*
X0671950Y0731950D03*
X0670950Y0912950D03*
X0651950Y0912950D03*
X0651950Y0952950D03*
X0670950Y0952950D03*
D25*
X0626950Y1007450D03*
X0570950Y1007450D03*
X0571950Y0786450D03*
X0624950Y0787450D03*
X0623950Y0567450D03*
X0571950Y0565450D03*
X0572950Y0337450D03*
X0622950Y0337450D03*
X0802950Y0337450D03*
X0803950Y0567450D03*
X0804950Y0787450D03*
X0806950Y1007450D03*
X0390950Y1007450D03*
X0391950Y0786450D03*
X0391950Y0565450D03*
X0392950Y0337450D03*
D26*
X0362950Y0312950D03*
X0354950Y0320950D03*
X0325950Y0248950D03*
X0318950Y0241950D03*
X0255950Y0121950D03*
X0275950Y0101950D03*
X0219950Y0063950D03*
X0211950Y0071950D03*
X0176950Y0080950D03*
X0107950Y0104950D03*
X0065950Y0030950D03*
X0059950Y0024950D03*
X0211950Y0296950D03*
X0181950Y0310950D03*
X0173950Y0389950D03*
X0216950Y0436950D03*
X0196950Y0518950D03*
X0268950Y0533950D03*
X0280950Y0506950D03*
X0293950Y0566950D03*
X0346950Y0488950D03*
X0440950Y0361950D03*
X0521950Y0305950D03*
X0521950Y0285950D03*
X0531950Y0281950D03*
X0521950Y0198950D03*
X0500950Y0200950D03*
X0366950Y0058950D03*
X0522950Y0418950D03*
X0579950Y0418950D03*
X0668950Y0418950D03*
X0746950Y0448950D03*
X0761950Y0460950D03*
X0761950Y0533950D03*
X0756950Y0328950D03*
X0527950Y0556950D03*
X0600950Y0645950D03*
X0592950Y0653950D03*
X0587950Y0712950D03*
X0526950Y0737950D03*
X0527950Y0776950D03*
X0597950Y0849950D03*
X0603950Y0855950D03*
X0514950Y1002950D03*
X0480950Y1037950D03*
X0412950Y1098950D03*
X0380950Y1070950D03*
X0376950Y1065950D03*
X0368950Y1063950D03*
X0362950Y1069950D03*
X0367950Y1074950D03*
X0359950Y1091950D03*
X0325950Y1073950D03*
X0347950Y1054950D03*
X0329950Y1038950D03*
X0314950Y1025950D03*
X0329950Y1016950D03*
X0347950Y1015950D03*
X0364950Y1031950D03*
X0380950Y1041950D03*
X0368950Y0992950D03*
X0343950Y0990950D03*
X0330950Y0931950D03*
X0351950Y0906950D03*
X0348950Y0897950D03*
X0359950Y0922950D03*
X0384950Y0891950D03*
X0397950Y0891950D03*
X0405950Y0895950D03*
X0401950Y0903950D03*
X0398950Y0906950D03*
X0413950Y0903950D03*
X0423950Y0899950D03*
X0390950Y0878950D03*
X0375950Y0859950D03*
X0316950Y0879950D03*
X0276950Y0850950D03*
X0249950Y0880950D03*
X0227950Y0824950D03*
X0211950Y0802950D03*
X0196950Y0812950D03*
X0196950Y0878950D03*
X0158950Y0893950D03*
X0196950Y0927950D03*
X0211950Y0958950D03*
X0201950Y0985950D03*
X0211950Y1049950D03*
X0211950Y1055950D03*
X0201950Y1061950D03*
X0197950Y1050950D03*
X0264950Y1010950D03*
X0268950Y1012950D03*
X0276950Y1020950D03*
X0292950Y1122950D03*
X0294950Y1130950D03*
X0112950Y1049950D03*
X0104950Y1052950D03*
X0107950Y1038950D03*
X0112950Y1038950D03*
X0090950Y1048950D03*
X0097950Y1083950D03*
X0034950Y1062950D03*
X0030950Y1101950D03*
X0034950Y1008950D03*
X0043950Y0999950D03*
X0086950Y0980950D03*
X0043950Y0934950D03*
X0043950Y0914950D03*
X0043950Y0898950D03*
X0039950Y0857950D03*
X0080950Y0804950D03*
X0101950Y0824950D03*
X0110950Y0828950D03*
X0112950Y0824950D03*
X0113950Y0814950D03*
X0122950Y0832950D03*
X0101950Y0838950D03*
X0092950Y0846950D03*
X0076950Y0751950D03*
X0082950Y0745950D03*
X0058950Y0722950D03*
X0065950Y0586950D03*
X0192950Y0665950D03*
X0216950Y0676950D03*
X0217950Y0715950D03*
X0416950Y0716950D03*
X0445950Y0664950D03*
X0445950Y0638950D03*
X0423950Y0642950D03*
X0715950Y1029950D03*
X0725950Y1019950D03*
X0579950Y1127950D03*
X0569950Y1117950D03*
X0760950Y0777950D03*
D27*
X0100926Y1121926D03*
M02*
